<?xml version="1.0" encoding="utf-8"?>
<!-- Generator: Adobe Illustrator 23.0.0, SVG Export Plug-In . SVG Version: 6.00 Build 0)  -->
<svg version="1.1" id="Camada_1" xmlns="http://www.w3.org/2000/svg" xmlns:xlink="http://www.w3.org/1999/xlink" x="0px" y="0px"
	 viewBox="0 0 322.94 233.48" style="enable-background:new 0 0 322.94 233.48;" xml:space="preserve">
<style type="text/css">
	.st0{fill:#77E8FD;}
	.st1{fill:#ADFF14;}
	.st2{fill:#FDA302;}
	.st3{fill:#FFFFFF;}
</style>
<g>
	<g>
		<path class="st0" d="M71.67,233.14c0,0.17-0.17,0.35-0.35,0.35H68.1c-0.17,0-0.35-0.17-0.35-0.35v-6.14H57.8v6.14
			c0,0.17-0.17,0.35-0.35,0.35h-3.23c-0.17,0-0.35-0.17-0.35-0.35v-16.62c0-0.17,0.17-0.35,0.35-0.35h3.23
			c0.17,0,0.35,0.17,0.35,0.35v7.18h9.95v-7.18c0-0.17,0.17-0.35,0.35-0.35h3.23c0.17,0,0.35,0.17,0.35,0.35V233.14z"/>
		<path class="st0" d="M114.18,224.83c0,5.42-4.36,8.94-9.55,8.94s-9.55-3.52-9.55-8.94c0-5.34,4.36-8.94,9.55-8.94
			S114.18,219.49,114.18,224.83z M99,224.83c0,3.49,2.57,5.65,5.63,5.65c3.06,0,5.63-2.16,5.63-5.65c0-3.49-2.57-5.65-5.63-5.65
			C101.57,219.17,99,221.34,99,224.83z"/>
		<path class="st0" d="M135.36,219.46c-0.17,0-0.4-0.23-0.4-0.4v-2.48c0-0.17,0.23-0.4,0.4-0.4h16.39c0.17,0,0.4,0.23,0.4,0.4v2.48
			c0,0.17-0.23,0.4-0.4,0.4h-6.23v13.67c0,0.17-0.17,0.35-0.35,0.35h-3.23c-0.17,0-0.35-0.17-0.35-0.35v-13.67H135.36z"/>
		<path class="st0" d="M178.61,226.27v3.92h10.15c0.17,0,0.4,0.23,0.4,0.4v2.48c0,0.17-0.23,0.4-0.4,0.4h-13.73
			c-0.17,0-0.35-0.17-0.35-0.35v-16.62c0-0.17,0.17-0.35,0.35-0.35h13.56c0.17,0,0.4,0.23,0.4,0.4v2.48c0,0.17-0.23,0.4-0.4,0.4
			h-9.98v3.52h9.12c0.17,0,0.4,0.23,0.4,0.4v2.48c0,0.17-0.23,0.4-0.4,0.4H178.61z"/>
		<path class="st0" d="M216.35,233.14c0,0.17-0.17,0.35-0.35,0.35h-3.23c-0.17,0-0.35-0.17-0.35-0.35v-16.62
			c0-0.17,0.17-0.35,0.35-0.35h3.23c0.17,0,0.35,0.17,0.35,0.35V233.14z"/>
		<path class="st0" d="M243.1,227.65c0.35,0,0.52,0.14,0.58,0.43c0.29,1.47,1.53,2.39,4.27,2.39c2.77,0,4.01-1.04,4.01-2.28
			c0-0.81-0.58-1.53-2.31-1.67l-4.5-0.37c-3.52-0.29-5.4-1.9-5.4-4.5c0-3,2.63-5.77,7.73-5.77c5.28,0,7.59,2.45,7.59,5.22
			c0,0.26-0.2,0.49-0.55,0.49h-2.85c-0.29,0-0.46-0.09-0.52-0.43c-0.17-1.01-1.15-1.99-3.69-1.99c-2.42,0-3.78,0.98-3.78,2.25
			c0,0.78,0.52,1.36,2.11,1.47l4.47,0.37c4.04,0.35,5.63,2.37,5.63,4.76c0,2.71-2.34,5.74-7.93,5.74c-5.28,0-8.19-2.51-8.19-5.37
			v-0.23c0-0.29,0.23-0.52,0.55-0.52H243.1z"/>
	</g>
	<g>
		<path class="st1" d="M119.14,107.71L119.14,107.71c-6.79,0-12.29-5.5-12.29-12.29V12.29c0-6.79,5.5-12.29,12.29-12.29h0
			c6.79,0,12.29,5.5,12.29,12.29v83.13C131.43,102.21,125.93,107.71,119.14,107.71z"/>
		<path class="st0" d="M188.2,107.71L188.2,107.71c-6.79,0-12.29-5.5-12.29-12.29V12.29C175.91,5.5,181.41,0,188.2,0h0
			c6.79,0,12.29,5.5,12.29,12.29v83.13C200.49,102.21,194.99,107.71,188.2,107.71z"/>
		<circle class="st2" cx="153.67" cy="53.85" r="14.48"/>
	</g>
	<g>
		<path class="st3" d="M0,136.31c0-0.53,0.53-1.06,1.06-1.06h26.6c13.12,0,22.43,7.8,22.43,19.69c0,7.54-4.08,12.95-10.29,15.96
			v0.18c0,0,1.15,1.6,2.13,3.1l7.98,12.33c0.44,0.71,0.62,0.98,0.62,1.33c0,0.35-0.27,0.62-0.89,0.62H33.34
			c-0.44,0-0.98-0.18-1.24-0.62l-8.96-14.01h-7.18v13.57c0,0.53-0.53,1.06-1.06,1.06H1.06c-0.53,0-1.06-0.53-1.06-1.06V136.31z
			 M15.96,148.73v12.5h10.29c5.05,0,7.89-2.75,7.89-6.3c0-3.64-2.84-6.21-7.89-6.21H15.96z"/>
		<path class="st3" d="M69.5,173.91c0.53,2.93,3.55,4.08,8.51,4.08c4.34,0,8.87-1.24,11.26-1.95c0.98-0.27,1.68-0.44,2.39-0.44
			c1.15,0,1.86,0.62,2.13,1.51l1.24,4.43c0.27,0.97,0.44,1.68,0.44,2.04c0,0.71-0.35,1.51-1.6,2.13c-3.64,1.86-9.49,3.64-15.87,3.64
			c-13.92,0-23.59-7.54-23.59-19.07c0-10.38,8.51-19.07,21.9-19.07c13.57,0,20.93,7.71,20.93,16.76c0,1.48-0.17,2.93-0.34,4.03
			c-0.17,1.1-1.11,1.91-2.22,1.91H69.5z M69.59,166.44h14.3c-0.65-2.82-2.14-5.12-7.39-5.12C73.23,161.32,70.21,163.43,69.59,166.44
			z"/>
		<path class="st3" d="M168.75,173.91c0.53,2.93,3.55,4.08,8.51,4.08c4.34,0,8.87-1.24,11.26-1.95c0.98-0.27,1.68-0.44,2.39-0.44
			c1.15,0,1.86,0.62,2.13,1.51l1.24,4.43c0.27,0.97,0.44,1.68,0.44,2.04c0,0.71-0.35,1.51-1.6,2.13c-3.64,1.86-9.49,3.64-15.87,3.64
			c-13.92,0-23.59-7.54-23.59-19.07c0-10.38,8.51-19.07,21.9-19.07c13.57,0,20.93,7.71,20.93,16.76c0,1.48-0.17,2.93-0.34,4.03
			c-0.17,1.1-1.11,1.91-2.22,1.91H168.75z M168.83,166.44h14.3c-0.65-2.82-2.14-5.12-7.39-5.12
			C172.47,161.32,169.46,163.43,168.83,166.44z"/>
		<path class="st3" d="M131.33,136.6c0-0.53,0.97-1.51,1.51-1.51h11.88c0.53,0,1.51,0.98,1.51,1.51v50.35
			c0,0.53-0.97,1.51-1.51,1.51h-8.78c-0.71,0-1.33-0.53-1.77-1.42l-0.98-1.86h-0.18c-2.66,2.39-6.3,4.17-11.26,4.17
			c-9.75,0-18.09-7.63-18.09-19.07c0-10.73,7.63-19.07,18.71-19.07c3.28,0,6.92,0.89,8.6,2.13h0.36V136.6z M125.13,176.92
			c2.39,0,4.79-1.06,6.21-2.57v-7.89c-1.06-1.51-3.73-2.84-6.12-2.84c-3.99,0-6.65,3.01-6.65,6.65
			C118.56,174.44,121.58,176.92,125.13,176.92z"/>
		<path class="st3" d="M207.3,188.45c-0.53,0-1.06-0.53-1.06-1.06v-51.08c0-0.53,0.53-1.06,1.06-1.06h29.26
			c12.24,0,18.71,6.56,18.71,14.81c0,4.08-1.6,7.36-4.34,9.84v0.09c3.9,2.75,6.21,6.83,6.21,12.06c0,10.2-7.54,16.41-20.57,16.41
			H207.3z M222.2,155.55h12.15c3.72,0,5.05-1.6,5.05-3.81c0-2.22-1.77-3.9-5.59-3.9H222.2V155.55z M222.2,175.86h12.68
			c4.61,0,6.3-1.77,6.3-4.43c0-2.57-1.95-4.52-6.47-4.52h-12.5V175.86z"/>
		<path class="st3" d="M322.94,187.39c0,0.53-0.53,1.06-1.06,1.06h-13.83c-0.53,0-1.06-0.53-1.06-1.06v-17.2h-25.01v17.2
			c0,0.53-0.53,1.06-1.06,1.06h-13.83c-0.53,0-1.06-0.53-1.06-1.06v-51.08c0-0.53,0.53-1.06,1.06-1.06h13.83
			c0.53,0,1.06,0.53,1.06,1.06v20.4h25.01v-20.4c0-0.53,0.53-1.06,1.06-1.06h13.83c0.53,0,1.06,0.53,1.06,1.06V187.39z"/>
	</g>
</g>
</svg>
